<?xml version="1.0" standalone="no"?>
<!DOCTYPE svg PUBLIC "-//W3C//DTD SVG 20010904//EN"
 "http://www.w3.org/TR/2001/REC-SVG-20010904/DTD/svg10.dtd">
<svg version="1.0" xmlns="http://www.w3.org/2000/svg"
 width="416.000000pt" height="97.000000pt" viewBox="0 0 416.000000 97.000000"
 preserveAspectRatio="xMidYMid meet">

<g transform="translate(0.000000,97.000000) scale(0.100000,-0.100000)"
fill="#000000" stroke="none">
<path d="M225 926 c-60 -28 -97 -66 -124 -126 -19 -42 -21 -65 -21 -315 0
-250 2 -273 21 -315 27 -60 64 -98 124 -126 49 -23 57 -24 321 -24 l270 0 52
26 c61 30 105 80 127 143 22 65 22 527 0 592 -22 63 -66 113 -127 143 l-52 26
-270 0 c-264 0 -272 -1 -321 -24z m592 -67 c40 -15 73 -48 94 -94 16 -35 19
-68 19 -280 0 -212 -3 -245 -19 -280 -21 -46 -54 -79 -94 -94 -38 -15 -506
-15 -544 0 -38 14 -83 57 -99 96 -17 40 -20 505 -3 550 14 37 57 82 94 99 38
17 508 20 552 3z"/>
<path d="M754 775 c-25 -26 -26 -52 -2 -82 14 -18 73 -16 88 2 20 24 15 67
-10 87 -30 24 -46 23 -76 -7z"/>
<path d="M477 716 c-67 -25 -111 -61 -142 -117 -111 -204 109 -434 315 -329
46 24 95 76 114 122 20 48 20 138 0 186 -45 108 -185 176 -287 138z m154 -100
c127 -87 67 -286 -86 -286 -93 0 -155 62 -155 155 0 93 62 155 155 155 37 0
60 -7 86 -24z"/>
<path d="M1283 798 c-51 -48 -93 -126 -93 -176 0 -45 24 -89 59 -106 36 -19
44 -11 26 25 -31 59 -9 183 41 230 l25 24 -4 -275 c-2 -151 -7 -286 -12 -298
l-8 -24 32 17 c20 10 40 32 52 58 17 38 19 68 19 298 0 282 3 269 -61 269 -21
0 -43 -13 -76 -42z"/>
<path d="M2157 833 c-4 -3 -7 -28 -7 -55 l0 -48 -40 0 c-29 0 -42 -5 -50 -19
-17 -33 -12 -40 36 -43 l47 -3 -2 -110 c-2 -95 -5 -114 -24 -142 -27 -40 -37
-42 -37 -7 0 26 -62 98 -103 121 -18 9 -18 11 2 44 25 41 27 65 5 77 -25 14
-62 2 -84 -26 -22 -27 -26 -72 -9 -89 12 -12 -3 -47 -58 -130 -56 -84 -63 -75
-63 83 l0 135 -37 16 c-33 13 -40 13 -63 0 -14 -8 -42 -48 -63 -89 -22 -40
-41 -75 -43 -77 -2 -3 -1 32 2 77 6 82 6 82 -21 92 -14 5 -30 10 -35 10 -4 0
-11 -71 -15 -157 -8 -183 -2 -213 44 -213 25 0 30 4 36 38 12 66 54 181 82
225 l28 42 5 -138 c5 -129 7 -140 27 -157 13 -10 31 -16 42 -13 28 7 73 59
124 141 l45 73 35 -34 c41 -38 54 -76 37 -106 -13 -26 -33 -27 -72 -3 -28 16
-30 16 -44 -3 -23 -30 -13 -49 34 -64 77 -24 152 7 201 84 l28 45 7 -39 c7
-47 37 -87 70 -93 34 -7 80 23 96 62 l13 32 19 -36 c38 -74 103 -84 164 -25
31 30 32 30 39 10 3 -12 20 -28 37 -37 35 -18 71 -8 95 26 12 17 15 17 42 -11
41 -40 94 -36 141 11 18 18 20 18 20 2 0 -10 -30 -47 -66 -82 -100 -98 -116
-144 -70 -197 20 -23 32 -28 69 -28 92 0 136 71 137 222 0 80 1 84 39 134 22
29 54 85 73 125 29 64 36 73 60 74 l26 0 -5 -92 c-4 -71 -2 -102 10 -130 28
-67 109 -85 143 -33 l15 23 30 -30 c26 -26 35 -30 66 -25 21 4 50 19 68 37
l32 31 11 -26 c10 -22 47 -45 72 -45 5 0 22 11 38 25 28 24 30 24 35 5 5 -20
47 -36 72 -26 10 4 15 19 15 49 0 24 4 69 10 98 10 55 40 133 47 125 3 -2 8
-48 13 -101 9 -102 26 -145 60 -145 25 0 27 5 39 81 6 35 18 89 28 119 l17 55
7 -97 c9 -111 28 -161 68 -178 56 -23 111 29 111 105 0 37 -13 31 -35 -17 -43
-92 -69 -49 -72 120 -1 72 -7 129 -13 137 -16 19 -60 28 -75 15 -7 -6 -23 -43
-35 -83 -36 -117 -39 -120 -39 -29 -1 68 -4 85 -21 102 -23 23 -53 26 -67 8
-6 -7 -18 -35 -28 -63 -27 -75 -35 -76 -35 -3 0 64 -1 66 -27 71 -16 3 -31 3
-35 0 -5 -2 -8 -61 -8 -131 0 -109 -3 -132 -20 -159 -22 -37 -44 -42 -60 -14
-5 11 -10 79 -10 151 l0 130 -26 12 c-18 9 -30 9 -43 1 -13 -8 -22 -7 -36 3
-27 20 -78 17 -107 -6 -41 -32 -61 -94 -63 -193 -1 -68 -5 -92 -18 -105 -13
-13 -21 -14 -35 -6 -28 18 -36 79 -22 164 7 41 12 84 12 94 -1 34 -30 40 -102
20 -10 -2 -20 7 -27 26 -12 31 -31 37 -64 20 -21 -12 -27 -68 -9 -86 13 -13
-17 -97 -55 -159 l-24 -39 -3 134 -3 135 -29 3 c-16 2 -32 -2 -37 -9 -6 -11
-11 -10 -26 3 -51 45 -109 23 -148 -56 -20 -41 -25 -65 -25 -131 0 -83 -15
-125 -45 -125 -27 0 -35 39 -35 174 l0 136 -27 6 c-14 4 -34 2 -43 -4 -13 -8
-21 -7 -33 6 -23 22 -81 20 -108 -3 -34 -32 -59 -90 -66 -157 -6 -68 -34 -135
-60 -145 -34 -13 -43 24 -43 178 l0 147 56 7 c91 11 86 55 -7 55 l-47 0 6 47
c4 37 1 49 -13 60 -20 14 -57 18 -68 6z m352 -259 c16 -21 21 -41 21 -88 0
-108 -33 -176 -78 -161 -57 17 -56 220 1 260 29 20 32 19 56 -11z m371 -36
c18 -66 -7 -186 -44 -210 -57 -38 -95 69 -65 188 14 54 52 89 80 74 10 -6 23
-29 29 -52z m607 25 c25 -37 22 -150 -5 -201 -23 -44 -64 -56 -81 -23 -19 34
-24 105 -12 162 19 87 63 116 98 62z m-594 -385 c-6 -94 -13 -118 -38 -134
-18 -11 -29 -13 -43 -5 -28 15 -34 38 -18 75 14 34 82 116 95 116 4 0 6 -24 4
-52z"/>
</g>
</svg>
